PathFileType	4	(X/Y/Z)	Patient4_TMGait_0pt3_03_left_15.trc.trc
DataRate	CameraRate	NumFrames	NumMarkers	Units	OrigDataRate	OrigDataStartFrame	OrigNumFrames
48.951048951049	48.951048951049	5	33	mm	48.951048951049	124	       141
Frame#	Time	Sacral			L.Shoulder			Chest			R.Shoulder			Neck			R.ASIS			L.ASIS			R.Thigh.Superior			R.Thigh.Lateral			R.Thigh.Inferior			R.Patella			L.Thigh.Superior			L.Thigh.Lateral			L.Thigh.Inferior			L.Patella			L.Shank.Superior			L.Shank.Lateral			L.Shank.Inferior			R.Shank.Superior			R.Shank.Lateral			R.Shank.Inferior			R.Heel			R.Midfoot.Superior			R.Midfoot.Lateral			R.Toe			L.Heel			L.Midfoot.Lateral			L.Midfoot.Superior			L.Toe			L.Elbow			L.Wrist			R.Elbow			R.Wrist			
		X1	Y1	Z1	X2	Y2	Z2	X3	Y3	Z3	X4	Y4	Z4	X5	Y5	Z5	X6	Y6	Z6	X7	Y7	Z7	X8	Y8	Z8	X9	Y9	Z9	X10	Y10	Z10	X11	Y11	Z11	X12	Y12	Z12	X13	Y13	Z13	X14	Y14	Z14	X15	Y15	Z15	X16	Y16	Z16	X17	Y17	Z17	X18	Y18	Z18	X19	Y19	Z19	X20	Y20	Z20	X21	Y21	Z21	X22	Y22	Z22	X23	Y23	Z23	X24	Y24	Z24	X25	Y25	Z25	X26	Y26	Z26	X27	Y27	Z27	X28	Y28	Z28	X29	Y29	Z29	X30	Y30	Z30	X31	Y31	Z31	X32	Y32	Z32	X33	Y33	Z33	

124	29.782714285714	581.918531228332	996.474967059693	541.665787413261	724.890064369527	1433.017133109086	347.719366561927	865.049825650330	1355.087925683464	472.472286982161	830.473117484168	1422.225269057943	663.823692972062	747.559078495918	1482.730815443506	515.225372364306	827.806090530798	923.224824393865	607.054444456527	761.521009978233	958.710946545177	343.156355855692	839.460789059630	717.610947363897	566.870939942554	756.135774454536	610.022318536079	633.989654914562	814.263348251800	555.347474210974	542.526216867810	803.443148271773	460.610870105184	547.588725094806	836.351608756634	763.156658939603	356.203249606605	770.277014174344	638.090317370291	284.442356447065	876.065195770563	575.619033779949	335.139253154002	891.021495253928	507.470104307807	332.361453678490	873.574306838417	435.875439645634	315.565341926724	799.234759364861	315.760283887271	253.817769968733	876.044859608735	205.986396657601	302.371457516290	750.751504817722	379.369525620336	554.552915759591	661.034651862021	293.246542185039	622.147868958245	669.325761097579	195.594072090617	552.212080135362	498.382298633449	51.113996924992	528.103020290429	673.418526100895	95.220523420444	555.982092535379	583.901746532220	39.448378434095	598.957977396020	791.424358573427	37.731342066485	581.207514082515	772.788132587881	38.275816475960	325.347483764752	848.764000226284	39.905997860289	247.194651814849	928.344182309629	105.621936777684	276.266529735180	1058.002117640687	61.023777942570	249.242187541107	559.820249647446	1129.339873432984	247.583626408656	497.430924510515	873.958931864070	268.749490369971	1031.841970660658	1147.179167401789	746.484432722991	1256.807778295214	1230.433608959036	659.683198111655	
125	29.803142857143	581.341049525294	995.896024438485	537.038756398328	725.170987970724	1432.393055242485	343.182422916800	865.010059303607	1354.294123267231	468.115551081424	830.242235788030	1421.021551788218	659.583776493091	747.778341836696	1482.042289742588	510.717964637307	827.399000644280	922.821504021413	602.678983341892	761.174663724866	957.637317908766	338.738539105983	838.645646498842	716.945508331193	563.450279940426	754.967115538014	609.784364950324	631.132984246642	812.851873466555	554.531964707869	539.975558509207	801.543103768901	459.589857114249	545.632376168838	835.960409503901	761.687843722471	352.856370885153	769.647165132201	636.354529519344	282.018866168773	874.975835686860	573.761765357048	333.410686585138	889.737626716629	505.313393426044	331.137565510739	871.969303680929	433.582354984893	314.776472644334	797.147043604183	313.801146010521	253.230720587796	872.144416541588	203.547145017115	303.018087206404	747.932400512801	378.721170497712	553.035813892464	657.216576851585	293.908625975470	621.061864483039	664.737679519239	195.725254551107	551.828146106883	492.524563979977	52.374559465587	528.410398322701	667.670581070623	95.223830457938	555.782100504908	578.017073626679	39.997031931876	599.176984892607	785.451946198932	37.528805925835	581.281591109011	766.070669200439	38.092770220945	326.139847266598	842.635526298597	38.096977984967	248.499707912696	923.367041561824	102.192011963891	277.993183996937	1052.565719451646	54.551209978709	252.005284495352	559.875881628638	1128.715780903902	243.294851111704	496.528390001591	873.542985651508	264.582644645586	1030.333069701454	1145.162343124437	742.794432815666	1256.219312458385	1227.889755518769	656.892203557344	
126	29.823571428571	580.803040339210	995.751503664873	532.076947572851	725.694357699487	1432.217470207067	338.600921184869	865.184152422676	1353.735627898044	463.630059911151	830.316893369120	1419.969202391726	655.272394563243	748.258746674463	1481.652097816059	506.199494968136	826.957776990814	922.617957624606	597.880748278676	760.807065927873	956.995162115535	333.914149712948	837.459900511099	716.430880900584	559.707197314495	753.295900287011	609.880279350950	628.062868870021	810.879280516858	553.916776733699	537.256876934480	799.041933278267	458.875865293773	543.580687747257	835.792449127386	761.045190678008	349.234601042899	769.735679037159	635.347089238441	279.057952153321	874.588553831101	572.682921554946	331.184125830611	889.338103341511	503.848230250578	329.314197062737	871.075266968537	431.914594734034	313.514885572146	795.606559323325	312.553074539010	252.181468870666	868.588185614150	201.763005769460	303.237393091716	744.642058504638	378.377185639505	551.467264494167	653.046519649564	294.796596752573	619.925306325582	659.973695330465	196.049865715397	551.438591904641	486.696184060057	53.720172788306	528.712424352381	661.953492007805	95.256782874452	555.596981583400	572.152359980417	40.602334834042	599.390904730102	779.494917877793	37.340030466253	581.362858901912	759.701630215356	38.307312232003	326.650949197360	836.712715989427	36.920952179640	249.408328074855	918.452726639558	99.611593839969	279.193416412457	1047.222337190633	49.289111825242	254.001429297812	560.373806666321	1128.510697676230	238.565145720385	496.607368031870	873.399276195654	259.724859121332	1028.483634807847	1142.688242153824	739.104237156437	1256.100976750346	1223.335200518699	654.559032469547	
127	29.844000000000	580.308295532813	996.027936702844	526.762080193584	726.478524189272	1432.462654987602	333.946451672988	865.567679295735	1353.392774670276	459.020271547316	830.654196009823	1419.083600901319	650.870839869916	748.978397358091	1481.545082295346	501.649920272844	826.442378744132	922.607754125248	592.727713740696	760.460941309217	956.751567746924	328.719529955091	835.858700954401	716.059352286957	555.718999928535	751.047677721120	610.310162809943	624.822144417747	808.297042737428	553.501807108223	534.434223782896	795.884566280942	458.474009637527	541.480694163242	835.835533059107	761.158888532938	345.352385162603	770.404468143966	634.975706851020	275.640060723897	874.800704981824	572.285901599387	328.460365987370	889.660309493689	502.978976259147	326.947385897250	870.739721247941	430.785511399860	311.828111248675	794.449823264696	311.932267519190	250.733422354095	865.249595341307	200.569718434066	303.078950032370	740.840014302166	378.341830236350	549.877794622271	648.486066264378	295.898988662911	618.753131203537	655.005047643372	196.562059898595	551.049695262441	480.882979521242	55.126706580515	528.994797245406	656.256452164436	95.330990742231	555.446610471844	566.291525885091	41.257053448560	599.589800709309	773.537880460665	37.167347256972	581.449080624449	753.631936699935	38.794163936031	326.911989906405	830.939977998274	36.316997126713	249.944612649069	913.505324273458	97.866708854010	279.901173796968	1041.897689314762	45.333767871667	255.239329079594	561.283846619811	1128.742863543498	233.344576567035	497.636760370367	873.544899508446	254.150690186096	1026.389318611010	1139.889629467838	735.318035365296	1256.481299633043	1216.852290288952	652.648352855411	
128	29.864428571429	579.863930913480	996.662342128265	521.069030049620	727.546111678700	1433.051713195512	329.164028376078	866.149909611333	1353.217544836787	454.285120049584	831.179006525735	1418.357533456398	646.348042613285	749.905879574515	1481.672134530906	497.017950949550	825.824468086848	922.760166241286	587.302079790856	760.201962739460	956.821193913958	323.204958625991	833.853754627286	715.805334913888	551.574086833627	748.218242169173	611.038779832633	621.451832550975	805.138626568647	553.262354396765	531.569733799045	792.101146327352	458.352914748722	539.371994068255	836.055972372304	761.850583703288	341.238848757541	771.450154726581	635.068280581251	271.880073754120	875.435602468669	572.392250289905	325.309527976008	890.470321815330	502.541847313571	324.149892190017	870.749306838155	430.048480917215	309.796098226867	793.465084647348	311.783583616694	248.989888101265	861.975001480291	199.838064633200	302.624296818839	736.550403420155	378.586502602037	548.289723516580	643.542350163573	297.190408495040	617.551944272841	649.828339930566	197.241305630904	550.663492195818	475.067269721825	56.577661003247	529.244026666876	650.566506066528	95.456705479614	555.347531385282	560.414162260673	41.957090921157	599.764239987778	767.558760493477	37.011492935945	581.537218776784	747.765513942901	39.415246812286	326.978178219682	825.233745243392	36.164148837025	250.171505774393	908.427052181065	96.849000765985	280.204371968814	1036.510186837521	42.618210183921	255.819862019855	562.589020332301	1129.372308711558	227.577388507028	499.563915956054	873.950549515883	247.836397996690	1024.085940131478	1136.865817109936	731.352154378864	1257.262441817426	1208.499728839301	651.126305637906	
